<svg xmlns="http://www.w3.org/2000/svg"  viewBox="0 0 64 64"><defs fill="#D3D3D3" /><path  d="m52,29.53c0,.56-.38,1.05-1.07,1.22l-2.49.62-1,6.01c-.28,1.65-1.36,2.61-2.85,2.61-.3,0-.62-.04-.95-.12l-5.63-1.41v3.53l5.11,10.21c.59,1.18.89,2.47.89,3.79h-10v-28l8.46-4.23c.02-.25.04-.51.04-.77,0-5.25-4.25-9.5-9.5-9.5s-9.5,4.25-9.5,9.5c0,4.2,2.73,7.75,6.5,9.01v23.99h-14c0-5.46,4-10,10-13v-6.74c-4.76-2.52-8-7.51-8-13.26,0-8.28,6.72-15,15-15s15,6.72,15,15c0,.23-.02.46-.03.69l3.71,4.95c.22.29.32.6.32.89Z" fill="#D3D3D3" /></svg>